<svg xmlns="http://www.w3.org/2000/svg" viewBox="0 0 1240 320" preserveAspectRatio="xMinYMid meet" role="img" aria-labelledby="title desc">
  <title id="title">Build With Ronald</title>
  <desc id="desc">Orange and blue BR monogram with Build With Ronald wordmark.</desc>
  <defs>
    <linearGradient id="orange" x1="0" x2="1" y1="0" y2="1">
      <stop offset="0" stop-color="#ff7a00"/>
      <stop offset="1" stop-color="#ff5a1f"/>
    </linearGradient>
    <linearGradient id="blue" x1="0" x2="1" y1="0" y2="1">
      <stop offset="0" stop-color="#29c4ff"/>
      <stop offset="1" stop-color="#0798e4"/>
    </linearGradient>
  </defs>
  <g transform="translate(24 48)">
    <path fill="url(#orange)" d="M10 12h122c29 0 53 24 53 53 0 17-8 32-20 42l48 57h-44l-42-48H64v48H10V62h42v66h68l-22-25h33c14 0 25-11 25-25s-11-25-25-25H43L10 12z"/>
    <path fill="url(#blue)" d="M140 12h73c38 0 69 31 69 69 0 25-14 48-35 60l38 43h-47l-72-82h47c13 0 24-10 24-23s-11-23-24-23h-34l-39-44z"/>
  </g>
  <g font-family="Arial, Helvetica, sans-serif" font-weight="800" letter-spacing="7">
    <text x="340" y="176" font-size="78" fill="#ff5a1f">BUILD</text>
    <text x="605" y="176" font-size="78" fill="#f3f5f7">WITH</text>
    <text x="820" y="176" font-size="78" fill="#29c4ff">RONALD</text>
  </g>
</svg>