<svg xmlns="http://www.w3.org/2000/svg" viewBox="0 0 1240 280" preserveAspectRatio="xMinYMid meet" role="img" aria-labelledby="title desc">
  <title id="title">Build With Ronald</title>
  <desc id="desc">Orange and blue BR monogram with Build With Ronald wordmark.</desc>
  <defs>
    <linearGradient id="orange" x1="0" y1="0" x2="1" y2="1">
      <stop offset="0" stop-color="#ff8a00"/>
      <stop offset="1" stop-color="#ff5a1f"/>
    </linearGradient>
    <linearGradient id="blue" x1="0" y1="0" x2="1" y2="1">
      <stop offset="0" stop-color="#29c4ff"/>
      <stop offset="1" stop-color="#0798e4"/>
    </linearGradient>
  </defs>

  <!-- Fully bounded BR monogram with generous top and bottom clearance -->
  <g transform="translate(22 28)">
    <path d="M22 18H142C177 18 199 37 199 66C199 87 188 101 168 111C192 120 207 139 207 163C207 198 181 218 142 218H22V18ZM65 58V92H132C147 92 156 86 156 75C156 64 147 58 132 58H65ZM65 132V178H137C154 178 164 170 164 155C164 140 154 132 137 132H65Z" fill="url(#orange)" fill-rule="evenodd"/>
    <path d="M130 18H222C263 18 291 45 291 82C291 109 278 129 253 142L300 218H249L208 151H180V218H136V108H216C235 108 247 98 247 82C247 66 235 58 216 58H168L130 18Z" fill="url(#blue)"/>
  </g>

  <g font-family="Arial, Helvetica, sans-serif" font-weight="800" letter-spacing="7">
    <text x="350" y="160" font-size="78" fill="#ff5a1f">BUILD</text>
    <text x="615" y="160" font-size="78" fill="#f3f5f7">WITH</text>
    <text x="830" y="160" font-size="78" fill="#29c4ff">RONALD</text>
  </g>
</svg>